<svg width="34" height="24" viewBox="0 0 34 24" fill="none" xmlns="http://www.w3.org/2000/svg">
<path d="M0 16.517C0 12.5105 1.36053 9.11147 4.08158 6.31987C6.80264 3.50242 10.8314 1.3958 16.1678 0V3.56704C14.5035 4.05816 13.0769 4.69144 11.8881 5.46688C10.7257 6.24233 9.80109 7.13409 9.11422 8.14217C8.45377 9.12439 8.12354 10.0679 8.12354 10.9725C8.12354 11.567 8.32168 12.0711 8.71795 12.4847C9.14064 12.8724 9.9596 13.3764 11.1748 13.9968C13.209 15.0565 14.2261 16.6591 14.2261 18.8045C14.2261 20.3813 13.6317 21.6478 12.4429 22.6042C11.2805 23.5347 9.73504 24 7.80653 24C5.56099 24 3.69852 23.3021 2.21911 21.9063C0.739705 20.4847 0 18.6882 0 16.517ZM17.8322 16.517C17.8322 12.5105 19.1927 9.11147 21.9138 6.31987C24.6348 3.50242 28.6636 1.3958 34 0V3.56704C32.3357 4.05816 30.9091 4.69144 29.7203 5.46688C28.5579 6.24233 27.6333 7.13409 26.9464 8.14217C26.2859 9.12439 25.9557 10.0679 25.9557 10.9725C25.9557 11.567 26.1538 12.0711 26.5501 12.4847C26.9728 12.8724 27.7918 13.3764 29.007 13.9968C31.0412 15.0565 32.0583 16.6591 32.0583 18.8045C32.0583 20.3813 31.4639 21.6478 30.2751 22.6042C29.1127 23.5347 27.5672 24 25.6387 24C23.3932 24 21.5307 23.3021 20.0513 21.9063C18.5719 20.4847 17.8322 18.6882 17.8322 16.517Z" fill="#311F09"/>
</svg>
