<svg width="17" height="16" viewBox="0 0 17 16" fill="none" xmlns="http://www.w3.org/2000/svg">
<path d="M6.59208 1.25485C7.13607 -0.418275 9.50308 -0.418273 10.0471 1.25485L10.7664 3.46728C11.0097 4.21556 11.7071 4.72213 12.4939 4.72213H14.8192C16.5792 4.72213 17.3106 6.97451 15.8864 8.00856L14.0073 9.37292C13.3702 9.83549 13.1036 10.6558 13.3471 11.4045L14.0653 13.6136C14.6094 15.287 12.6944 16.679 11.2706 15.6452L9.38683 14.2775C8.75036 13.8154 7.88878 13.8154 7.25231 14.2775L5.36858 15.6452C3.94472 16.679 2.02976 15.287 2.57383 13.6136L3.29207 11.4045C3.53551 10.6558 3.26892 9.83549 2.63184 9.37292L0.752711 8.00856C-0.671472 6.97451 0.0599818 4.72213 1.81997 4.72213H4.14524C4.93207 4.72213 5.62945 4.21555 5.87274 3.46728L6.59208 1.25485Z" fill="#F54748"/>
</svg>
