<svg width="17" height="16" viewBox="0 0 17 16" fill="none" xmlns="http://www.w3.org/2000/svg">
<path d="M6.59209 1.25485C7.13608 -0.418275 9.5031 -0.418274 10.0471 1.25485L10.7664 3.46729C11.0097 4.21556 11.7071 4.72213 12.4939 4.72213H14.8192C16.5792 4.72213 17.3107 6.97453 15.8865 8.00857L14.0073 9.37294C13.3703 9.83551 13.1037 10.6558 13.3471 11.4045L14.0653 13.6136C14.6094 15.287 12.6944 16.679 11.2706 15.6452L9.38685 14.2775C8.75038 13.8154 7.8888 13.8154 7.25233 14.2775L5.36859 15.6452C3.94473 16.679 2.02976 15.287 2.57383 13.6136L3.29208 11.4045C3.53551 10.6558 3.26893 9.83551 2.63184 9.37294L0.752713 8.00857C-0.671474 6.97452 0.059982 4.72213 1.81997 4.72213H4.14525C4.93208 4.72213 5.62946 4.21556 5.87275 3.46729L6.59209 1.25485Z" fill="#F54748"/>
</svg>
