<svg width="17" height="16" viewBox="0 0 17 16" fill="none" xmlns="http://www.w3.org/2000/svg">
<path d="M6.59212 1.25479C7.13611 -0.41834 9.50313 -0.418339 10.0471 1.2548L10.7665 3.46724C11.0098 4.21552 11.7071 4.72209 12.494 4.72209H14.8193C16.5793 4.72209 17.3107 6.97449 15.8865 8.00854L14.0074 9.37291C13.3703 9.83548 13.1037 10.6558 13.3471 11.4045L14.0654 13.6136C14.6095 15.287 12.6945 16.679 11.2706 15.6452L9.38688 14.2775C8.75041 13.8154 7.88883 13.8154 7.25236 14.2775L5.36861 15.6452C3.94474 16.679 2.02977 15.287 2.57384 13.6136L3.29209 11.4045C3.53553 10.6558 3.26894 9.83548 2.63185 9.37292L0.752716 8.00854C-0.671476 6.97449 0.0599822 4.72209 1.81998 4.72209H4.14527C4.9321 4.72209 5.62948 4.21552 5.87277 3.46724L6.59212 1.25479Z" fill="#F54748"/>
</svg>
