<svg width="10" height="10" viewBox="0 0 10 10" fill="none" xmlns="http://www.w3.org/2000/svg">
<path d="M3.92618 0.768764C4.27533 -0.256265 5.72504 -0.256265 6.07419 0.768763L6.50702 2.03944C6.6636 2.49914 7.09539 2.80821 7.58102 2.80821H8.8635C9.97554 2.80821 10.4238 4.24192 9.50979 4.87536L8.56581 5.52958C8.14926 5.81827 7.97469 6.34821 8.1381 6.82795L8.52016 7.94961C8.87304 8.98558 7.69937 9.87139 6.79986 9.24798L5.64648 8.44863C5.25773 8.17922 4.74264 8.17922 4.35389 8.44863L3.20051 9.24798C2.301 9.87138 1.12733 8.98558 1.48021 7.94961L1.86227 6.82795C2.02568 6.34821 1.85111 5.81827 1.43456 5.52958L0.490577 4.87536C-0.423419 4.24192 0.0248276 2.80821 1.13687 2.80821H2.41935C2.90498 2.80821 3.33677 2.49914 3.49335 2.03944L3.92618 0.768764Z" fill="#F54748"/>
</svg>
