<svg width="29" height="29" viewBox="0 0 29 29" fill="none" xmlns="http://www.w3.org/2000/svg">
<path d="M27.3947 11.728V22.1882C27.3947 25.3563 24.8265 27.9245 21.6585 27.9245H6.81178C3.64374 27.9245 1.07554 25.3563 1.07554 22.1882V7.34149C1.07554 4.17345 3.64374 1.60525 6.81178 1.60525H16.2597" stroke="#123968" stroke-width="2.125" stroke-linecap="round"/>
<path d="M25.1368 0.296487C25.5321 -0.0988314 26.1731 -0.0988312 26.5684 0.296488L28.2541 1.98216C28.6494 2.37748 28.6494 3.01842 28.2541 3.41374L16.589 15.0788C16.5304 15.1374 16.465 15.1885 16.394 15.2311L12.1798 17.7596C11.2762 18.3018 10.2488 17.2744 10.791 16.3708L13.3195 12.1566C13.3621 12.0856 13.4132 12.0201 13.4717 11.9616L25.1368 0.296487Z" fill="#123968"/>
</svg>
