<svg width="17" height="16" viewBox="0 0 17 16" fill="none" xmlns="http://www.w3.org/2000/svg">
<path d="M6.59206 1.25478C7.13605 -0.418337 9.50306 -0.418335 10.047 1.25479L10.7664 3.46721C11.0097 4.21549 11.707 4.72205 12.4939 4.72205H14.8191C16.5791 4.72205 17.3106 6.97444 15.8864 8.00848L14.0073 9.37284C13.3702 9.8354 13.1036 10.6557 13.347 11.4044L14.0653 13.6135C14.6094 15.2869 12.6944 16.6789 11.2705 15.6451L9.38681 14.2774C8.75034 13.8153 7.88877 13.8153 7.2523 14.2774L5.36857 15.6451C3.94471 16.6789 2.02976 15.2869 2.57382 13.6135L3.29207 11.4044C3.5355 10.6557 3.26891 9.8354 2.63183 9.37284L0.75271 8.00848C-0.671471 6.97443 0.0599817 4.72205 1.81997 4.72205H4.14524C4.93206 4.72205 5.62944 4.21548 5.87273 3.46721L6.59206 1.25478Z" fill="#F54748"/>
</svg>
