<svg width="20" height="20" viewBox="0 0 20 20" fill="none" xmlns="http://www.w3.org/2000/svg">
<path d="M3.29114 3.71646H17.7274C18.3744 3.71646 18.8555 4.31502 18.7163 4.94694L17.6623 9.73208C17.2533 11.5889 15.6079 12.9114 13.7065 12.9114H7.38741C5.90068 12.9114 4.63238 11.8354 4.39006 10.3686L3.29114 3.71646ZM3.29114 3.71646L2.74736 2.12862C2.4669 1.30966 1.69694 0.759494 0.831291 0.759494H0.759494" stroke="#311F09" stroke-width="1.5" stroke-linecap="round"/>
<path d="M15.9494 15.9494H5.31646C4.47754 15.9494 3.79747 15.2693 3.79747 14.4304V14.4304C3.79747 13.5915 4.47754 12.9114 5.31646 12.9114H7.8481" stroke="#311F09" stroke-width="1.5" stroke-linecap="round"/>
<circle cx="5.82278" cy="17.9747" r="1.27532" stroke="#311F09" stroke-width="1.5"/>
<circle cx="13.9241" cy="17.9747" r="1.27532" stroke="#311F09" stroke-width="1.5"/>
</svg>
