<svg width="34" height="24" viewBox="0 0 34 24" fill="none" xmlns="http://www.w3.org/2000/svg">
<path d="M34 7.48304C34 11.4895 32.6395 14.8885 29.9184 17.6801C27.1974 20.4976 23.1686 22.6042 17.8322 24V20.433C19.4965 19.9418 20.9231 19.3086 22.1119 18.5331C23.2743 17.7577 24.1989 16.8659 24.8858 15.8578C25.5462 14.8756 25.8765 13.9321 25.8765 13.0275C25.8765 12.433 25.6783 11.9289 25.2821 11.5153C24.8594 11.1276 24.0404 10.6236 22.8252 10.0032C20.791 8.94346 19.7739 7.34087 19.7739 5.19548C19.7739 3.61874 20.3683 2.35218 21.5571 1.3958C22.7195 0.465267 24.265 0 26.1935 0C28.439 0 30.3015 0.697899 31.7809 2.0937C33.2603 3.51535 34 5.31179 34 7.48304ZM16.1678 7.48304C16.1678 11.4895 14.8073 14.8885 12.0862 17.6801C9.36519 20.4976 5.33644 22.6042 0 24V20.433C1.66434 19.9418 3.09091 19.3086 4.27972 18.5331C5.44211 17.7577 6.36674 16.8659 7.05361 15.8578C7.71406 14.8756 8.04429 13.9321 8.04429 13.0275C8.04429 12.433 7.84615 11.9289 7.44988 11.5153C7.02719 11.1276 6.20824 10.6236 4.99301 10.0032C2.95882 8.94346 1.94173 7.34087 1.94173 5.19548C1.94173 3.61874 2.53613 2.35218 3.72494 1.3958C4.88733 0.465267 6.43279 0 8.36131 0C10.6068 0 12.4693 0.697899 13.9487 2.0937C15.4281 3.51535 16.1678 5.31179 16.1678 7.48304Z" fill="#311F09"/>
</svg>
